<?xml version="1.0" encoding="UTF-8" standalone="no"?>
<!-- Created with Inkscape (http://www.inkscape.org/) -->

<svg
   xmlns:dc="http://purl.org/dc/elements/1.1/"
   xmlns:cc="http://creativecommons.org/ns#"
   xmlns:rdf="http://www.w3.org/1999/02/22-rdf-syntax-ns#"
   xmlns:svg="http://www.w3.org/2000/svg"
   xmlns="http://www.w3.org/2000/svg"
   xmlns:sodipodi="http://sodipodi.sourceforge.net/DTD/sodipodi-0.dtd"
   xmlns:inkscape="http://www.inkscape.org/namespaces/inkscape"
   width="98.049004"
   height="85.480003"
   viewBox="0 0 98.049002 85.48"
   id="svg2"
   version="1.1"
   inkscape:version="0.91 r13725"
   sodipodi:docname="logo.svg">
  <defs
     id="defs4" />
  <sodipodi:namedview
     id="base"
     pagecolor="#ffffff"
     bordercolor="#666666"
     borderopacity="1.0"
     inkscape:pageopacity="0.0"
     inkscape:pageshadow="2"
     inkscape:zoom="2.1260526"
     inkscape:cx="-123.14561"
     inkscape:cy="27.150851"
     inkscape:document-units="px"
     inkscape:current-layer="layer1"
     showgrid="false"
     inkscape:window-width="1600"
     inkscape:window-height="836"
     inkscape:window-x="0"
     inkscape:window-y="27"
     inkscape:window-maximized="1"
     units="px" />
  <metadata
     id="metadata7">
    <rdf:RDF>
      <cc:Work
         rdf:about="">
        <dc:format>image/svg+xml</dc:format>
        <dc:type
           rdf:resource="http://purl.org/dc/dcmitype/StillImage" />
        <dc:title />
      </cc:Work>
    </rdf:RDF>
  </metadata>
  <g
     inkscape:label="Layer 1"
     inkscape:groupmode="layer"
     id="layer1"
     transform="translate(0,-966.8822)">
    <g
       id="g4164"
       transform="matrix(0.23942496,0,0,0.23689795,-29.732499,949.24023)"
       style="stroke:#000000;stroke-width:1.04972279">
      <path
         inkscape:connector-curvature="0"
         id="path4151"
         d="m 366.87615,214.00356 c -21.14315,0.27805 -40.66672,7.21945 -52.72573,19.27848 -1.75653,1.75651 -3.54052,3.71946 -5.00879,5.4775 -1.46828,1.75806 -2.6108,3.28213 -3.1276,4.28154 -0.7538,1.45768 -1.22803,2.13881 -2.0052,2.51596 -0.77717,0.37714 -2.02446,0.48075 -4.30046,0.48343 -7.80914,0.01 -13.20147,1.95123 -18.24014,6.5957 l -4.22268,3.89269 -7.23047,-3.59002 c -22.02417,-10.93228 -54.12287,-2.03675 -79.42806,21.76081 -14.79297,13.9116 -24.02664,30.43009 -24.02664,43.35552 0,17.36162 11.99059,30.21458 28.25983,30.21458 6.68372,0 12.6164,-1.91465 18.79503,-6.53056 6.17865,-4.6159 12.62369,-11.91252 20.48916,-22.71504 l 7.30404,-10.0323 0.20809,5.95674 c 0.7135,20.47099 3.0374,37.70085 6.19425,45.08329 0.12559,0.29372 0.16309,0.4403 0.20598,0.59063 -0.10986,-0.01 -0.13787,-6.6e-4 -0.38254,-0.0651 -0.41395,-0.10921 -0.99637,-0.30094 -1.75507,-0.56541 -6.1005,-2.12665 -14.87623,-0.74603 -19.67153,3.1297 -5.05181,4.08307 -8.1955,9.43759 -9.17261,14.77413 -0.97712,5.33656 0.22877,10.67457 3.88008,14.6144 1.79894,1.94109 2.61471,4.3012 3.16543,9.44376 1.45751,13.61004 10.42239,22.82103 23.01772,23.56631 5.86498,0.34705 7.46794,-0.0447 11.87985,-2.87957 6.23592,-4.00693 9.81789,-10.73142 9.81789,-18.39569 0,-3.22975 0.69266,-5.78278 1.59953,-6.78488 0.10697,-0.11818 0.70921,-0.53292 1.57852,-0.97948 0.8693,-0.44654 2.0308,-0.97803 3.39454,-1.55328 2.72748,-1.15051 6.2645,-2.47942 9.9377,-3.70352 l 13.20403,-4.39924 6.40654,2.87537 c 16.06336,7.20881 32.96921,1.28808 38.34255,-13.53402 0.33917,-0.93559 0.73401,-1.78973 1.07827,-2.38563 0.14334,-0.24814 0.26675,-0.41553 0.37624,-0.55491 0.13108,0.24696 0.29265,0.62106 0.46661,1.10139 0.35997,0.9939 0.7645,2.39281 1.1161,3.92842 1.96512,8.58264 8.87846,22.21286 14.70687,29.00598 12.13086,14.13878 26.87344,22.8537 44.89623,26.53628 16.21528,3.31324 31.90428,1.15431 47.44791,-6.51794 28.6872,-14.15983 43.07978,-46.39795 34.44776,-77.16223 -1.68177,-5.99377 -1.69484,-6.60987 -0.12401,-11.23666 2.45556,-7.23268 2.2325,-16.07682 -0.59063,-22.63939 -0.64227,-1.49299 -1.39641,-2.84627 -2.11449,-3.85065 -0.35904,-0.50219 -0.70614,-0.91798 -1.04674,-1.2275 -0.34061,-0.30951 -0.66308,-0.5591 -1.12872,-0.5591 -0.88254,0 -2.08431,0.43441 -3.63836,1.10349 -1.55403,0.66909 -3.3999,1.5937 -5.29254,2.63577 -3.78522,2.08411 -7.74039,4.61912 -9.89566,6.56628 l -3.73714,3.37772 -7.695,-4.73554 c -7.7862,-4.79049 -21.1575,-10.08806 -29.38643,-11.63182 l -3.42397,-0.64318 -0.58012,-7.83372 c -0.34032,-4.5827 -1.38713,-10.82111 -2.36461,-14.01535 -0.74492,-2.43425 -1.26231,-3.88323 -1.99049,-4.8154 -0.72817,-0.93218 -1.72488,-1.21699 -2.93843,-1.21699 -3.64892,0 -8.8734,2.87471 -13.53402,6.53054 -4.66063,3.65581 -8.70845,8.05719 -9.60141,11.61499 -0.12973,0.51692 -0.7762,1.36494 -1.96105,2.29527 -1.18485,0.93031 -2.87633,1.96714 -4.99829,3.04142 -3.67877,1.86246 -8.1563,4.3581 -10.03859,5.60572 l -2.75767,1.82864 -3.97256,-10.87304 c -4.42484,-12.10778 -11.17307,-24.9767 -16.82137,-32.02008 -0.88904,-1.10863 -1.62284,-2.19323 -2.07455,-3.0204 -0.22586,-0.41359 -0.38024,-0.76693 -0.44771,-0.9942 -0.0132,-0.0446 -0.01,-0.051 -0.0168,-0.084 0.0881,-0.0511 0.27036,-0.14806 0.69993,-0.18077 0.49925,-0.038 1.19344,-0.006 2.03252,0.0966 1.67815,0.20652 3.94315,0.69559 6.57469,1.41667 5.26309,1.44216 12.00327,3.80815 18.6479,6.66508 13.5721,5.83545 15.27212,6.28869 24.9914,6.74914 17.12435,0.81129 29.47349,-4.60118 34.71049,-15.41941 2.98573,-6.16768 3.10317,-15.98477 0.26484,-22.2169 -2.83889,-6.23337 -9.42939,-11.78923 -18.57223,-16.22655 -9.14287,-4.43731 -20.85941,-7.75003 -34.0316,-9.40803 -3.28721,-0.41376 -6.56713,-0.66472 -9.8179,-0.75877 -1.42221,-0.0411 -2.83836,-0.0522 -4.24789,-0.0337 z m -0.95846,3.44499 c 1.14278,-0.01 2.29588,-0.009 3.4534,0.004 9.26008,0.10557 18.77146,0.95423 24.99348,2.50965 10.26041,2.56495 23.78993,8.40702 29.2414,12.56506 4.13017,3.15024 8.30717,10.15153 9.2525,15.54132 1.77867,10.14114 -5.919,21.71851 -16.87602,25.21209 -7.02401,2.23955 -12.48438,3.09223 -18.74671,2.30787 -6.26231,-0.78437 -13.35279,-3.22519 -23.53267,-7.63194 -6.8148,-2.95005 -10.50923,-4.50531 -13.63702,-5.33668 -3.1278,-0.83138 -5.6502,-0.91702 -10.01547,-0.93744 -2.63483,-0.0124 -4.96618,0.0917 -6.67769,0.27955 -0.85575,0.094 -1.55381,0.20684 -2.08086,0.34681 -0.26353,0.07 -0.48426,0.14356 -0.67891,0.24592 -0.19464,0.10234 -0.42019,0.23045 -0.50445,0.5675 -0.11445,0.45783 0.0203,0.9444 0.32579,1.26324 0.30546,0.31883 0.74851,0.48133 1.2275,0.48133 0.18784,0 0.77904,0.27393 1.49023,0.93744 0.71121,0.66351 1.56467,1.66232 2.50335,2.91532 1.87735,2.50596 4.09962,6.03425 6.35399,10.0491 4.50876,8.02967 9.16001,18.01458 11.59189,25.71022 l 2.34359,7.41124 -4.33408,4.92471 c -8.86566,10.07194 -12.82047,17.18427 -15.22183,27.41276 -1.24299,5.29449 -2.26164,11.74298 -2.26164,14.55344 0,1.38186 -0.0556,2.43574 -0.2333,3.19696 -0.17762,0.76123 -0.44381,1.20847 -0.90801,1.54699 -0.92842,0.67703 -2.95751,0.88167 -6.74495,0.86387 -6.47759,-0.0305 -12.68134,-2.97204 -16.83188,-7.98295 -2.34187,-2.82734 -3.50739,-4.62255 -3.82332,-6.79749 -0.31593,-2.17494 0.22442,-4.85576 1.50495,-9.38071 0.63248,-2.23498 1.09268,-3.95433 1.31788,-5.31146 0.22519,-1.35712 0.23648,-2.37775 -0.16605,-3.18855 -0.40254,-0.81081 -1.22063,-1.2593 -2.26793,-1.47131 -1.0473,-0.21203 -2.38705,-0.24462 -4.13231,-0.24172 -2.21436,0.003 -5.57506,0.86991 -8.46007,1.91692 -1.44251,0.5235 -2.75551,1.09308 -3.73505,1.64367 -0.48978,0.27529 -0.89528,0.54297 -1.20648,0.82183 -0.31121,0.27886 -0.58853,0.57203 -0.58853,1.03834 0,0.18875 0.0473,0.25693 0.084,0.3363 0.0367,0.0793 0.0777,0.15195 0.12821,0.2333 0.10094,0.16269 0.23615,0.35216 0.40566,0.57802 0.33901,0.45171 0.81688,1.04238 1.40616,1.73826 1.17855,1.39176 2.79699,3.20377 4.5779,5.10757 1.76401,1.88573 3.37,3.7821 4.52536,5.30516 0.57767,0.76152 1.04364,1.43175 1.35571,1.94844 0.31207,0.5167 0.43088,0.96427 0.43088,0.8912 0,1.12776 -0.69541,3.3387 -1.87277,5.82642 -1.17737,2.48772 -2.81884,5.29518 -4.63886,7.82951 -2.26871,3.15912 -5.27756,5.63823 -9.19364,7.55417 -4.7604,2.32905 -7.59432,2.92219 -15.46355,3.2348 -4.41078,0.17522 -6.95066,0.20125 -8.97924,-0.12401 -2.02858,-0.32526 -3.59046,-0.99668 -6.12699,-2.28265 -6.7426,-3.41837 -11.15313,-7.9599 -14.09103,-15.65482 -2.93788,-7.69492 -4.35558,-18.56308 -4.9289,-34.47298 l -0.64949,-18.01735 4.21848,-2.92161 c 1.2433,-0.86161 2.37178,-1.74954 3.20326,-2.49914 0.41576,-0.37481 0.75461,-0.71246 1.00681,-1.01101 0.12609,-0.14927 0.2317,-0.28835 0.31528,-0.43088 0.0836,-0.14253 0.16395,-0.2814 0.16395,-0.52127 0,-0.42826 -0.0355,-0.88037 -0.4372,-1.18125 -0.20084,-0.15047 -0.45655,-0.20094 -0.6831,-0.18918 -0.22657,0.0117 -0.44444,0.0732 -0.68732,0.16605 -0.97155,0.37135 -2.39898,1.3028 -4.83433,2.97837 -2.23574,1.53822 -3.8657,2.89855 -6.53686,6.05552 -2.67115,3.15697 -6.41034,8.12249 -12.97282,16.97271 -11.53903,15.56164 -21.69547,22.53521 -32.40053,22.49225 -10.09944,-0.0406 -17.8287,-4.6652 -22.58262,-13.5046 -1.83943,-3.42019 -2.25309,-5.90467 -2.25953,-13.7358 -0.006,-8.66214 0.30798,-10.23217 3.39034,-16.7394 9.32392,-19.68395 31.38058,-38.631 54.11088,-46.43479 7.76471,-2.6658 10.23814,-3.0099 21.58843,-3.0099 5.59454,0 8.98508,0.0855 11.52253,0.42878 2.53744,0.34338 4.23012,0.93455 6.53475,1.99679 2.90444,1.33871 6.43835,3.51683 7.65506,4.65988 0.68672,0.64515 1.34818,1.18109 1.89169,1.53858 0.27176,0.17875 0.50868,0.31223 0.74197,0.39935 0.11665,0.0436 0.23087,0.0809 0.38464,0.0841 0.15378,0.003 0.40225,-0.0536 0.557,-0.25223 0.13472,-0.17286 0.46562,-0.64038 0.95636,-1.341 0.49074,-0.70061 1.11671,-1.60378 1.76348,-2.54118 3.16868,-4.59258 9.97031,-7.66346 17.26487,-7.66346 l 6.35399,0 4.40344,-5.96095 c 8.52145,-11.53504 21.00357,-19.73566 36.42774,-23.90681 4.56605,-1.23479 12.03568,-1.87595 20.03515,-1.94634 z m -45.70335,53.76827 c -1.00656,0.0291 -2.02806,0.2418 -3.05613,0.63267 -2.33489,0.88772 -3.99974,2.76601 -5.01089,5.10757 -1.01115,2.34157 -1.39035,5.15744 -1.19807,8.0397 0.38453,5.76449 3.05526,11.83826 7.92199,14.80566 l 0.81763,0.50025 0,-0.0736 c 1.78801,1.01653 3.27511,1.6511 4.67039,1.63737 1.61809,-0.0159 3.07984,-0.79324 4.86375,-2.19647 3.21109,-2.52584 4.73638,-6.64727 4.65568,-11.02228 -0.0807,-4.37499 -1.7562,-9.03318 -5.00669,-12.73529 -1.86262,-2.1214 -3.73208,-3.5377 -5.68349,-4.22479 -0.97571,-0.34355 -1.9676,-0.49983 -2.97417,-0.47082 z m 0.25643,2.79761 c 1.50933,0 3.32149,0.89508 5.00039,2.455 1.67889,1.55992 3.21778,3.76222 4.23529,6.25519 l 0.8912,2.18385 -1.72565,-1.4524 c -2.24253,-1.88696 -4.31124,-2.88354 -6.27832,-2.86485 -1.96708,0.0187 -3.7351,1.08969 -5.27363,3.04562 -1.74126,2.2136 -2.27077,4.17222 -1.86647,6.78908 0.005,0.0317 -0.008,0.0542 -0.002,0.0862 0.13629,0.83983 0.17828,1.40176 0.20599,1.90431 -0.19667,-0.39367 -0.39028,-0.76776 -0.64738,-1.444 -1.43565,-3.77603 -1.34864,-8.09087 -0.22911,-11.41111 0.55977,-1.66013 1.37703,-3.06692 2.35411,-4.03772 0.97709,-0.9708 2.09149,-1.50915 3.33569,-1.50915 z m -41.59626,7.53314 c -3.23353,0 -5.74045,1.62849 -7.37761,4.07975 -1.63717,2.45126 -2.45526,5.71163 -2.50124,9.11797 -0.092,6.81268 2.91808,14.314 9.27982,16.94538 0.59265,0.24514 1.15535,0.47529 1.58271,0.64949 0.42736,0.17419 0.65161,0.26827 0.80082,0.31948 0.62423,0.21399 1.27323,0.0223 2.00309,-0.28376 0.72987,-0.30607 1.53666,-0.77671 2.34781,-1.3494 1.62229,-1.14539 3.25285,-2.67776 4.15121,-4.15123 2.93764,-4.81815 2.80308,-11.10322 0.75669,-16.20761 -2.04639,-5.10439 -6.06962,-9.12007 -11.0433,-9.12007 z m 131.20375,1.37042 c 0.0923,0.005 0.0848,-0.006 0.18496,0.002 0.73941,0.0662 1.36087,0.37124 1.96106,1.01731 0.60018,0.64608 1.15745,1.64675 1.64788,3.04983 0.98083,2.80618 1.68619,7.18999 2.17755,13.3911 l 0.75246,9.50472 4.63676,0.96055 c 1.1566,0.23959 2.25106,0.49797 3.07296,0.72096 0.41094,0.11147 0.75493,0.21562 0.99629,0.29846 0.10857,0.0372 0.18719,0.0674 0.24591,0.0924 0.0113,0.0274 0.019,0.0449 0.0336,0.084 0.0547,0.14509 0.12995,0.36073 0.2186,0.63477 0.1773,0.54809 0.41233,1.32663 0.68732,2.27213 0.54996,1.89102 1.2591,4.45419 1.99258,7.22628 0.73487,2.77729 1.45505,5.44722 2.02411,7.51423 0.56907,2.067 0.96653,3.4736 1.12662,3.92002 0.10406,0.29014 0.38483,0.49118 0.63897,0.56329 0.25412,0.0721 0.51098,0.0718 0.80712,0.0421 0.59227,-0.0594 1.34779,-0.25773 2.32468,-0.58853 1.95377,-0.6616 4.77156,-1.86336 8.51263,-3.62154 5.36096,-2.5195 8.16479,-3.79873 9.86834,-4.22268 1.70354,-0.42396 2.25116,-0.11308 3.66358,0.70833 0.72508,0.42168 1.29408,0.74904 1.85386,0.94375 0.55979,0.1947 1.13877,0.23441 1.70673,0.0441 1.13591,-0.38053 2.18844,-1.45094 4.25422,-3.4681 1.30571,-1.27502 2.46342,-2.20486 3.35459,-2.73245 0.4456,-0.26379 0.82414,-0.42494 1.09509,-0.48764 0.27094,-0.0627 0.40076,-0.025 0.4477,0.004 0.23005,0.14218 0.42336,0.2449 0.61375,0.31528 0.19038,0.0704 0.4145,0.1878 0.74827,-0.0231 0.16688,-0.10547 0.27287,-0.3148 0.29216,-0.46452 0.0193,-0.14973 -0.004,-0.26001 -0.0336,-0.35943 -0.0445,-0.15242 -0.1309,-0.29751 -0.2186,-0.4498 0.013,-0.0283 0.0264,-0.0634 0.082,-0.13872 0.1451,-0.1965 0.43505,-0.49025 0.81974,-0.81343 0.76938,-0.64635 1.91889,-1.4352 3.16753,-2.18806 1.24866,-0.75286 2.60021,-1.47349 3.78129,-1.9989 1.18109,-0.52539 2.23622,-0.83864 2.6736,-0.83864 -0.0371,0 0.10234,0.0291 0.30477,0.25222 0.20247,0.22321 0.44943,0.59243 0.70413,1.06566 0.50943,0.94646 1.0562,2.305 1.54699,3.83173 0.98159,3.05346 1.74877,6.80279 1.74877,9.37861 0,2.67685 -0.8355,7.15325 -1.82024,9.73172 -0.89711,2.34906 -1.37688,3.73862 -1.32419,5.52794 0.0527,1.78933 0.61163,3.89565 1.69203,7.83372 1.42263,5.18552 2.10212,10.41144 1.90009,14.49038 l -0.27954,5.65617 -2.30997,-1.20227 c -1.74131,-0.90627 -4.98485,-2.17906 -7.32296,-2.87958 -1.11149,-0.33302 -2.04425,-0.75602 -2.61054,-1.13292 -0.28315,-0.18845 -0.47219,-0.37213 -0.53808,-0.46873 -0.0108,-0.0158 -0.006,-0.002 -0.0126,-0.009 0.0899,-0.15235 0.1618,-0.29548 0.19757,-0.46871 0.0209,-0.10105 0.0326,-0.21867 -0.009,-0.36573 -0.0408,-0.14706 -0.16454,-0.31469 -0.31107,-0.39516 -0.29309,-0.16091 -0.50188,-0.0829 -0.68102,-0.0231 -0.17913,0.0598 -0.35399,0.15039 -0.55279,0.27325 -0.48495,0.29971 -0.90973,0.61471 -1.15604,1.10769 -0.2463,0.49299 -0.24963,1.08755 -0.0651,1.77609 0.36886,1.37709 1.446,3.35084 3.47021,6.93201 l 3.29364,5.82432 -4.2479,0.62636 c -2.26595,0.33375 -4.00757,0.61754 -5.29465,0.90592 -1.28707,0.28836 -2.11327,0.53221 -2.64836,1.0131 -0.26755,0.24044 -0.452,0.62523 -0.40567,0.99419 0.0464,0.36897 0.24839,0.65706 0.50445,0.93114 0.51214,0.54813 1.33158,1.0976 2.46341,1.79711 1.05092,0.64949 1.9237,1.36605 2.4571,1.95895 0.2667,0.29645 0.44636,0.56556 0.52337,0.74196 0.0771,0.17641 0.0352,0.19276 0.0673,0.14083 -0.11586,0.18747 -0.20148,0.35113 -0.25223,0.53598 -0.0508,0.18484 -0.0959,0.47899 0.14713,0.73146 0.24298,0.25246 0.55139,0.21774 0.73777,0.16815 0.18638,-0.0496 0.34947,-0.13486 0.53598,-0.25012 -0.08,0.0494 0.10687,-0.0215 0.40987,0.0189 0.30303,0.0403 0.72016,0.13967 1.19596,0.28796 0.95161,0.29657 2.14477,0.78072 3.29786,1.32628 1.15309,0.54558 2.27085,1.15631 3.07925,1.69203 0.40421,0.26785 0.7324,0.51845 0.93534,0.71463 0.13994,0.13526 0.18702,0.24767 0.20389,0.26064 -0.013,0.14218 -0.11315,0.52151 -0.34891,1.02152 -0.25196,0.53423 -0.62932,1.20532 -1.10559,1.96735 -0.95255,1.52407 -2.29802,3.41625 -3.83383,5.41026 -3.07166,3.98798 -6.91515,8.39196 -9.923,11.14628 -8.24906,7.55378 -17.38671,12.38618 -29.10687,15.38368 -13.60438,3.47942 -30.44138,2.21664 -44.61668,-3.36511 -31.16421,-12.2714 -50.60203,-46.09013 -44.10381,-76.61574 0.46439,-2.18145 0.93925,-4.2195 1.3284,-5.73604 0.19456,-0.75828 0.36904,-1.38724 0.50655,-1.83285 0.0621,-0.20108 0.11422,-0.35069 0.15763,-0.46661 0.10471,0.004 0.2258,0.01 0.40777,0.0336 0.45026,0.0585 1.09818,0.17662 1.88119,0.34261 1.56601,0.33198 3.67694,0.85735 5.93992,1.49234 2.28286,0.64056 4.41545,1.16536 6.02399,1.49653 0.80428,0.1656 1.47615,0.28286 1.98418,0.34261 0.25402,0.0299 0.46413,0.0449 0.64949,0.0421 0.0926,-10e-4 0.17886,-0.005 0.27534,-0.0252 0.0965,-0.0195 0.21617,-0.0354 0.36784,-0.18707 0.24802,-0.24803 0.2094,-0.47453 0.19336,-0.64107 -0.016,-0.16655 -0.0577,-0.32557 -0.1156,-0.50866 -0.11574,-0.36618 -0.30501,-0.81628 -0.557,-1.34521 -0.50398,-1.05783 -1.25924,-2.42081 -2.15443,-3.85906 -0.8765,-1.40821 -1.62443,-2.77184 -2.11449,-3.81491 -0.24503,-0.52153 -0.42571,-0.96533 -0.52337,-1.27585 -0.0353,-0.11234 -0.0454,-0.17986 -0.0589,-0.24801 0.0919,-0.0457 0.21305,-0.10019 0.38255,-0.16396 0.38349,-0.14416 0.93568,-0.31729 1.60163,-0.50024 1.33191,-0.3659 3.12364,-0.77587 5.03821,-1.13712 1.94135,-0.3663 3.70582,-0.77717 5.00039,-1.15184 0.64728,-0.18732 1.17605,-0.36489 1.568,-0.53177 0.19597,-0.0834 0.35584,-0.16068 0.50025,-0.25853 0.0722,-0.049 0.14197,-0.10213 0.21439,-0.18707 0.0724,-0.0849 0.16394,-0.22029 0.16394,-0.42668 0,-0.38266 -0.15683,-0.45409 -0.27323,-0.58012 -0.11641,-0.12604 -0.2579,-0.25154 -0.433,-0.39305 -0.3502,-0.28305 -0.83165,-0.6231 -1.42297,-1.01312 -1.18264,-0.78 -2.79909,-1.74822 -4.5779,-2.72613 -1.75856,-0.96678 -3.42267,-1.95087 -4.67879,-2.75137 -0.62807,-0.40025 -1.15498,-0.75519 -1.53438,-1.03413 -0.1897,-0.13946 -0.34203,-0.26089 -0.4477,-0.35311 -0.10568,-0.0922 -0.1673,-0.17396 -0.14292,-0.13452 0.003,0.006 -0.0173,-0.0163 0.009,-0.14292 0.0255,-0.12665 0.1046,-0.33072 0.24591,-0.57592 0.28269,-0.49041 0.80171,-1.14386 1.49865,-1.88119 1.39389,-1.47467 3.49573,-3.29961 5.89158,-5.1433 4.79168,-3.68742 10.80034,-7.4711 14.71528,-8.88677 2.58355,-0.93422 4.37543,-2.71325 5.66457,-5.57209 0.9223,-2.04527 3.9545,-5.99405 6.61253,-8.52313 0.0387,-0.0368 0.0524,-0.0479 0.0904,-0.084 -1.18498,1.65825 -2.44405,3.46224 -3.54798,5.39974 -0.72468,1.27188 -1.36205,2.48048 -1.82443,3.47441 -0.23119,0.49697 -0.41908,0.93974 -0.5528,1.31787 -0.13371,0.37816 -0.2249,0.67219 -0.2249,0.98789 0,0.25734 0.20388,0.53857 0.39725,0.64108 0.19339,0.10256 0.36724,0.12108 0.55281,0.12822 0.37111,0.0143 0.80912,-0.0516 1.36201,-0.17236 1.10578,-0.24171 2.64109,-0.72522 4.50644,-1.42508 0.11307,-0.0424 0.28617,-0.0218 0.54018,0.19758 0.25402,0.21946 0.52357,0.62184 0.68312,1.12451 0.46554,1.46682 1.5331,2.56042 2.69671,3.06454 0.58181,0.25207 1.19689,0.35792 1.7845,0.24802 0.58762,-0.10988 1.1383,-0.46177 1.48814,-1.02782 0.13822,-0.22365 0.26115,-0.36048 0.3426,-0.42247 0.0815,-0.062 0.10406,-0.0664 0.17656,-0.0631 0.14493,0.006 0.5704,0.20042 1.21279,0.73355 0.78141,0.64853 1.37485,1.02324 1.93372,1.14973 0.27946,0.0633 0.59578,0.0618 0.86598,-0.1219 0.27021,-0.18371 0.38745,-0.5025 0.40356,-0.7756 0.0322,-0.5462 -0.18564,-1.10827 -0.56329,-1.81181 -0.37769,-0.70356 -0.93988,-1.52291 -1.69412,-2.41928 -0.79027,-0.93919 -1.50569,-1.6817 -2.05986,-2.14813 -0.27708,-0.2332 -0.49049,-0.40015 -0.76507,-0.50234 -0.1373,-0.0511 -0.33366,-0.11999 -0.59273,0.009 -0.25911,0.12819 -0.35733,0.43852 -0.35733,0.61165 0,0.18582 -0.0366,0.22142 -0.19967,0.30688 -0.16307,0.0854 -0.46959,0.14199 -0.81134,0.10718 -0.6835,-0.0695 -1.41214,-0.48567 -1.60163,-0.97948 -0.22708,-0.59174 -0.7738,-0.97264 -1.39355,-1.13292 -0.61974,-0.16028 -1.34057,-0.13442 -2.10398,0.0651 -0.48233,0.12614 -0.82355,0.19914 -1.05515,0.2291 0,0 0,-0.002 0,-0.002 0.098,-0.25629 0.29787,-0.65571 0.57802,-1.17915 0.31346,-0.58572 0.70659,-1.04793 1.03202,-1.29477 0.16272,-0.12341 0.30541,-0.19017 0.38885,-0.21018 0.0834,-0.02 0.0845,-0.009 0.0841,-0.009 0.19087,0.11796 0.38646,0.21189 0.64528,0.20388 0.25881,-0.008 0.55691,-0.20979 0.66418,-0.43719 0.21457,-0.45481 0.0831,-0.83618 -0.10083,-1.31579 -0.0152,-0.0396 -0.0284,-0.19021 0.0525,-0.43508 0.0809,-0.24488 0.24346,-0.56585 0.47503,-0.91643 0.46313,-0.70116 1.19156,-1.52583 2.01571,-2.29735 0.82414,-0.77152 1.74785,-1.49418 2.59372,-2.0115 0.84586,-0.51734 1.63513,-0.80713 2.04934,-0.80713 0.55585,0 1.03115,-0.12714 1.39564,-0.38675 0.36451,-0.2596 0.5976,-0.66492 0.62847,-1.09087 0.0393,-0.54215 -0.27586,-1.0279 -0.72725,-1.45661 z m -130.78968,1.64157 c 0.9346,0.042 1.9277,0.31452 2.96575,0.84496 1.48988,0.76129 2.99898,2.32247 4.10499,4.13441 1.10599,1.81194 1.80761,3.87194 1.80761,5.55317 0,0.34097 -0.0154,0.49792 -0.0252,0.71674 -0.004,-0.005 -0.005,-0.008 -0.0108,-0.0126 -0.29215,-0.33013 -0.69836,-0.84105 -1.2338,-1.52176 -1.40738,-1.78918 -3.64754,-2.81223 -5.85376,-3.04353 -2.20621,-0.23129 -4.43313,0.3268 -5.74233,1.90431 -0.49038,0.59085 -0.90016,1.54503 -1.28006,2.69882 -0.37988,1.15378 -0.70067,2.49053 -0.87648,3.76027 -0.15235,1.10023 -0.32716,1.58655 -0.47713,1.99468 -0.14301,-0.42845 -0.30383,-0.95157 -0.41617,-1.9001 -0.14029,-1.18455 -0.22701,-2.72218 -0.22701,-4.53797 0,-4.10662 1.26438,-7.26223 3.13812,-9.00236 0.93686,-0.87007 2.01899,-1.41006 3.21167,-1.55539 0.29817,-0.0364 0.60279,-0.0477 0.91432,-0.0337 z m 202.6993,30.88087 c -0.0743,0.003 -0.15295,0.0188 -0.23331,0.0525 -0.32146,0.13499 -0.40911,0.40804 -0.45821,0.61375 -0.0983,0.4114 -0.0849,0.91162 -0.0379,1.69831 0.0473,0.78671 0.14471,1.83184 0.28166,3.19067 0.36137,3.58542 0.0509,7.57327 -0.73775,9.96292 -0.32235,0.97669 -0.5712,1.7125 -0.7693,2.21119 -0.0838,0.21104 -0.075,0.1767 -0.14293,0.29636 -0.10471,-0.22621 -0.20912,-0.44474 -0.36572,-0.86808 -0.28146,-0.76084 -0.7005,-1.39613 -1.19807,-1.83075 -0.49759,-0.43459 -1.14273,-0.70353 -1.76559,-0.46451 -0.1195,0.0458 -0.44346,0.0413 -0.83024,-0.0924 -0.38677,-0.13378 -0.82565,-0.37351 -1.19597,-0.64739 -0.37032,-0.27387 -0.67419,-0.58956 -0.80712,-0.81132 -0.064,-0.10665 -0.0819,-0.1804 -0.084,-0.19968 0.0835,-0.0982 0.17082,-0.27019 0.14923,-0.44981 -0.0236,-0.19586 -0.12648,-0.31126 -0.19757,-0.37624 -0.14219,-0.12994 -0.24099,-0.15628 -0.35522,-0.19757 -0.22847,-0.0827 -0.51187,-0.14386 -0.87439,-0.20809 -0.72502,-0.12845 -1.7468,-0.24576 -2.91951,-0.32789 -1.19644,-0.0838 -2.17237,-0.0474 -2.92582,0.0862 -0.75346,0.1335 -1.31554,0.30522 -1.64998,0.80712 -0.16722,0.25095 -0.20359,0.62549 -0.0862,0.90592 0.11743,0.28042 0.32388,0.47969 0.58012,0.66208 0.51248,0.36481 1.27327,0.66617 2.35411,0.93745 0.7651,0.19202 1.29126,0.47727 1.54279,0.73356 0.25152,0.25629 0.28387,0.40345 0.17655,0.6831 -0.23886,0.62248 -0.16197,1.27651 0.15554,1.76769 0.31751,0.49118 0.82607,0.82647 1.41456,1.03623 1.17699,0.41951 2.72531,0.35696 4.10709,-0.38255 0.38733,-0.20729 0.68587,-0.32366 0.87859,-0.35522 0.19271,-0.0315 0.25955,-0.0146 0.37413,0.0652 0.22918,0.15968 0.61953,0.83222 1.07827,2.14812 0.40679,1.16694 0.78377,2.02217 1.22119,2.60424 0.21871,0.29103 0.4578,0.52405 0.76929,0.65788 0.31149,0.13384 0.697,0.12174 1.0026,-0.0231 0.61118,-0.28966 1.00191,-0.90533 1.4461,-1.81392 0.44418,-0.9086 0.90443,-2.14268 1.41666,-3.72874 1.11108,-3.44026 1.69256,-6.94519 1.73405,-9.96923 0.0415,-3.02404 -0.42282,-5.56952 -1.58482,-7.13589 -0.3556,-0.47936 -0.60282,-0.81878 -0.92903,-1.05515 -0.12233,-0.0887 -0.31113,-0.1929 -0.53387,-0.18286 z m -69.77412,8.13849 c -0.46926,-0.0221 -0.94697,-0.0153 -1.43138,0.021 -2.90643,0.21786 -6.06372,1.50774 -9.27561,4.10497 -6.24244,5.04786 -9.63973,13.03174 -10.04699,20.40509 -0.40728,7.37335 2.20646,14.24209 8.17001,16.78984 3.13853,1.34083 6.57195,1.23045 9.90828,-0.17025 3.33632,-1.40072 6.5887,-4.07596 9.48369,-7.87155 7.10784,-9.319 7.16031,-20.03699 3.19486,-26.76329 -1.98271,-3.36313 -4.99611,-5.73832 -8.61981,-6.3645 -0.45297,-0.0782 -0.91378,-0.12924 -1.38305,-0.15133 z m 0.19969,2.65048 c 0.92641,0.0382 1.77839,0.23569 2.52016,0.59903 3.66394,1.79478 6.03515,5.30997 6.91098,9.64975 0.87585,4.33979 0.23508,9.48705 -2.15442,14.42312 -1.23755,2.55642 -3.81683,6.14531 -5.58681,7.80219 -0.18862,0.17657 -0.26134,0.24089 -0.42879,0.39726 2.6556,-4.44578 3.54786,-8.96717 2.40876,-13.09264 -0.98118,-3.55359 -3.54265,-5.82575 -6.56838,-6.47169 -3.02573,-0.64595 -6.49352,0.31489 -9.32185,3.02461 -4.38513,4.20123 -6.20944,10.18569 -4.53586,15.19661 0.01,0.0305 0.0131,0.0394 0.0231,0.0694 -1.5213,-2.63279 -2.08535,-6.50495 -1.58272,-10.68597 0.56268,-4.68061 2.36626,-9.63711 5.19585,-13.34697 2.25605,-2.95787 5.17891,-5.22051 8.0376,-6.46959 1.42935,-0.62454 2.83653,-0.99089 4.13231,-1.08037 0.32394,-0.0224 0.64124,-0.0274 0.95005,-0.0147 z m -102.63706,6.5852 c -0.0583,0.0403 -0.066,0.0605 -0.13662,0.10299 -0.52407,0.31521 -1.36478,0.68296 -2.3457,0.98998 -0.98489,0.30827 -1.88221,0.4962 -2.49073,0.55281 -0.0273,0.002 -0.0306,-0.002 -0.0567,0 0.0989,-0.0676 0.15689,-0.12363 0.28376,-0.19549 0.55295,-0.31315 1.33746,-0.6429 2.13551,-0.9059 0.79805,-0.26301 1.61694,-0.46286 2.2343,-0.53599 0.16061,-0.019 0.25013,-0.006 0.37623,-0.009 z m 34.80719,1.69201 c -0.58093,0.0182 -1.11249,0.28179 -1.52386,0.67891 -0.82276,0.79424 -1.21057,2.15709 -0.68733,3.52066 0.20907,0.54479 0.53919,1.02418 0.92693,1.38934 0.38776,0.36516 0.8353,0.64108 1.36623,0.64108 0.60118,0 1.13038,-0.28647 1.51125,-0.69152 0.38088,-0.40507 0.64159,-0.92788 0.79032,-1.48814 0.29745,-1.12051 0.174,-2.45335 -0.70204,-3.32938 -0.49452,-0.49453 -1.10058,-0.73911 -1.6815,-0.72095 z m 98.44379,3.1171 c -0.31168,0.002 -0.62505,0.0165 -0.93744,0.0421 -1.66607,0.1363 -3.33333,0.60229 -4.9079,1.42718 -2.98342,1.56299 -6.28096,4.79618 -8.88466,8.23098 -2.60369,3.43479 -4.53376,7.00229 -4.53376,9.56567 0,0.39688 -0.10041,0.67095 -0.14923,0.74407 -0.21448,-0.0902 -0.50301,-0.1564 -0.72095,-0.0189 -0.25287,0.15954 -0.33932,0.37562 -0.40566,0.58011 -0.13268,0.40899 -0.16264,0.9046 -0.15974,1.53649 0.005,1.26376 0.19285,3.01958 0.49184,4.90579 0.29899,1.8862 0.71235,3.89646 1.17705,5.63515 0.4647,1.73867 0.95653,3.18644 1.52807,4.05873 1.18259,1.80485 3.55325,3.81518 5.50694,4.66618 l 0.10298,0.0463 0.021,0 c 0.88547,0.38029 1.82463,0.73562 2.65048,0.99629 0.86444,0.27286 1.5624,0.45706 2.08296,0.47292 2.95479,0.0902 6.73745,-2.09015 10.28242,-5.18955 3.54497,-3.09939 6.80976,-7.15772 8.44116,-11.06221 1.14925,-2.75057 1.68828,-6.52933 1.6752,-10.19833 -0.0131,-3.669 -0.56786,-7.21043 -1.76348,-9.51943 -2.29591,-4.43395 -6.82197,-6.9581 -11.4973,-6.9194 z m -111.21484,0.0778 c -0.62483,0.0674 -1.23298,0.32708 -1.73195,0.82604 -0.85184,0.85185 -1.0457,2.30108 -0.59063,3.48703 0.52254,1.36166 1.90284,1.90508 3.13181,1.69201 1.22897,-0.21306 2.40367,-1.14762 2.68621,-2.61473 0.39612,-2.05689 -1.62092,-3.59234 -3.49544,-3.39035 z m 111.79706,2.51176 c 3.10514,0.0291 5.72382,1.64552 7.54156,4.36351 3.63547,5.43596 3.89627,15.29826 -2.62315,24.81273 -0.97113,1.41728 -2.19608,2.53388 -3.26632,3.51645 2.09755,-2.90157 3.04598,-6.58347 2.86487,-9.95242 -0.19021,-3.53773 -1.58955,-6.76631 -4.27524,-8.20365 -1.57021,-0.84034 -3.59117,-1.15496 -5.5847,-1.03202 -1.99354,0.12294 -3.96605,0.68466 -5.43127,1.71093 -2.60798,1.8267 -4.45389,5.09102 -5.33248,8.55887 -0.75007,2.96062 -0.74024,6.0494 0.17236,8.60301 -0.20585,-0.49291 -0.41922,-0.85819 -0.60955,-1.43979 -0.80143,-2.44903 -1.39967,-5.52348 -1.37884,-7.84424 0.062,-6.89483 2.43198,-12.5789 7.3566,-17.63269 3.80961,-3.90954 7.46103,-5.48977 10.56616,-5.46069 z m -73.8959,5.89578 c -0.0817,2.4e-4 -0.16798,0.0108 -0.26063,0.0315 -0.1853,0.0424 -0.42061,0.20076 -0.51287,0.41407 -0.0922,0.21332 -0.0688,0.40149 -0.0315,0.5612 0.14896,0.63884 0.64212,1.30058 1.54699,2.4445 1.80974,2.28782 5.30524,6.16485 10.9445,12.21193 3.25429,3.48963 6.37351,6.86568 8.77537,9.49421 1.93057,2.11278 2.89818,3.21324 3.5816,4.00408 -0.67883,-0.20375 -1.45366,-0.45113 -2.62736,-0.8996 -2.89739,-1.10711 -7.12563,-2.89765 -11.99544,-5.11178 -4.83421,-2.19793 -9.37936,-4.19825 -12.81308,-5.65196 -1.71686,-0.72686 -3.15458,-1.31635 -4.21638,-1.72775 -0.53089,-0.2057 -0.96728,-0.36657 -1.30317,-0.47923 -0.33588,-0.11267 -0.48922,-0.19102 -0.7924,-0.19547 -0.51097,-0.008 -0.89846,0.0108 -1.24222,0.12611 -0.17187,0.0577 -0.35386,0.14372 -0.49604,0.34261 -0.14219,0.19886 -0.16242,0.49827 -0.0946,0.69782 0.13568,0.39909 0.40724,0.60963 0.79032,0.8996 0.38306,0.28998 0.90057,0.61661 1.57431,0.99839 2.69489,1.52714 7.89341,3.93574 16.17609,7.56049 5.02248,2.19797 9.54234,4.24393 12.77314,5.76546 1.29628,0.61049 2.20308,1.06105 3.03091,1.47762 -0.98849,-0.10084 -2.14031,-0.22713 -3.6804,-0.42037 -3.60437,-0.45226 -8.52421,-1.13302 -13.88503,-1.93374 -8.50026,-1.26963 -14.05007,-1.97719 -17.3006,-2.15233 -1.62528,-0.0876 -2.64264,-0.0731 -3.33149,0.16605 -0.17221,0.0598 -0.33306,0.13562 -0.47713,0.27114 -0.14405,0.13553 -0.2594,0.35471 -0.26904,0.57171 -0.0193,0.43402 0.22229,0.70231 0.48764,0.96057 0.11374,0.1107 0.16011,0.11172 0.20809,0.13242 0.048,0.0207 0.0914,0.0373 0.13872,0.0525 0.0946,0.0303 0.20606,0.0588 0.3426,0.0924 0.27311,0.0675 0.64382,0.14907 1.11191,0.24382 0.93616,0.18951 2.25325,0.43248 3.85695,0.71464 3.20741,0.56431 7.56418,1.28256 12.30232,2.01781 9.61745,1.49238 15.67278,2.33829 19.35834,2.62946 1.84279,0.14558 3.08517,0.15784 3.94314,0.021 0.42898,-0.0684 0.77101,-0.168 1.05514,-0.36993 0.28414,-0.20193 0.47713,-0.56389 0.47713,-0.89961 0,-0.049 0.11998,-0.45929 0.37413,-0.87858 0.25416,-0.41928 0.61753,-0.88866 1.00681,-1.27794 0.42511,-0.42511 0.65501,-1.10384 0.46031,-1.83495 -0.19469,-0.73111 -0.69484,-1.56511 -1.59743,-2.75557 -1.8052,-2.38093 -5.26485,-6.16472 -11.35227,-12.64703 -3.86339,-4.114 -7.49679,-7.8987 -10.24248,-10.68597 -1.37285,-1.39365 -2.52423,-2.53872 -3.37353,-3.3525 -0.42464,-0.4069 -0.77353,-0.72919 -1.04253,-0.96477 -0.1345,-0.11779 -0.247,-0.21354 -0.3468,-0.29006 -0.0998,-0.0765 -0.15097,-0.13335 -0.32369,-0.19758 -0.25487,-0.0948 -0.46335,-0.17729 -0.70835,-0.17656 z m -29.16363,0.38885 c -0.16866,-0.001 -0.33682,0.0158 -0.50025,0.0483 -0.65371,0.13023 -1.27523,0.47794 -1.80551,0.93534 -0.53029,0.45737 -0.97143,1.02704 -1.21279,1.66048 -0.24135,0.63345 -0.2686,1.37384 0.11771,1.9989 1.30294,2.1082 4.60941,1.73646 5.50483,-0.59694 0.44821,-1.16801 0.17219,-2.6149 -0.69993,-3.48703 -0.38892,-0.38891 -0.89808,-0.5553 -1.40406,-0.5591 z m -46.53989,0.0168 c -0.61405,0.0385 -1.26184,0.28985 -1.84966,0.77769 -0.67526,0.56043 -1.136,1.07728 -1.24011,1.73617 -0.10406,0.65886 0.21295,1.27162 0.71885,1.88118 0.85754,1.03328 1.72896,1.64565 2.66098,1.59323 0.46601,-0.0263 0.90643,-0.24535 1.25062,-0.58853 0.34419,-0.34319 0.61018,-0.80244 0.82814,-1.37043 0.55519,-1.44679 0.19654,-2.81919 -0.71674,-3.53537 -0.45664,-0.35808 -1.03803,-0.53252 -1.65208,-0.49394 z m -12.35066,1.75508 c -1.1222,0 -2.066,0.57996 -2.57061,1.44398 -0.5046,0.86403 -0.58841,1.99496 -0.16184,3.10659 0.39489,1.02907 1.03441,1.75129 1.9022,1.83704 0.86779,0.0858 1.7046,-0.42245 2.57691,-1.29475 0.89292,-0.89293 1.0765,-2.15402 0.73776,-3.18856 -0.33875,-1.03454 -1.25655,-1.9043 -2.48442,-1.9043 z m 6.41074,9.68547 c -2.72561,0 -3.98819,3.94808 -1.68782,5.37031 1.15069,0.71142 2.58955,0.42842 3.63836,-0.62005 0.9531,-0.95279 1.24563,-2.15497 0.84706,-3.12761 -0.39856,-0.97263 -1.45258,-1.62265 -2.7976,-1.62265 z m 30.87666,3.3525 5.66458,3.19696 c 5.27329,2.97603 6.88399,3.33618 13.13046,2.93844 3.05254,-0.19437 4.79887,-0.22797 5.62884,-0.0525 0.41499,0.0877 0.55343,0.19634 0.62846,0.30266 0.075,0.10633 0.12821,0.30725 0.12821,0.68312 0,0.44086 -0.17932,0.81993 -0.59482,1.18336 -0.41551,0.36343 -1.07629,0.68231 -1.94634,0.88069 -6.13482,1.39876 -22.15031,6.34659 -37.41143,11.34387 -7.63055,2.49862 -15.06396,5.00737 -20.95577,7.08754 -5.8918,2.08018 -10.18782,3.69782 -11.75373,4.53587 -3.95947,2.11905 -5.89789,6.02175 -5.89789,11.65493 0,8.02795 -3.87889,13.62477 -11.75582,16.91596 -4.72087,1.97251 -6.22502,1.99154 -11.35858,0.15764 -8.81457,-3.1489 -14.50942,-10.38874 -15.33324,-19.47394 -0.6274,-6.91918 0.94845,-10.97871 5.66668,-14.69006 2.11962,-1.66727 3.59082,-2.06955 6.05973,-1.66891 1.0026,0.1627 1.91253,0.19678 2.62315,0.10719 0.35531,-0.0448 0.66057,-0.11462 0.93113,-0.25432 0.27056,-0.13973 0.56751,-0.43289 0.56751,-0.82604 0,-0.24852 -0.12787,-0.45448 -0.25853,-0.58433 -0.13066,-0.12985 -0.27354,-0.21531 -0.43298,-0.29216 -0.31891,-0.15369 -0.7129,-0.26476 -1.18547,-0.36152 -0.94515,-0.19353 -2.20125,-0.30898 -3.58582,-0.30898 -3.99649,0 -5.84553,0.69801 -8.27511,3.12761 -0.83529,0.83528 -1.65193,1.77361 -2.30366,2.62315 -0.65173,0.84952 -1.13484,1.56599 -1.3347,2.16073 -0.11134,0.33133 -0.21541,0.5601 -0.27955,0.65368 -0.0168,0.0245 -0.0114,0.0198 -0.0147,0.0273 -0.002,-0.002 -0.10762,-0.0168 -0.31949,-0.14923 -0.22436,-0.14023 -0.53598,-0.38034 -0.93323,-0.70834 -4.91755,-4.06012 -5.5851,-10.76995 -3.22429,-16.88863 2.3608,-6.11868 7.75267,-11.53893 14.82458,-12.86563 6.27246,-1.17672 11.83609,1.1263 17.68524,7.43226 7.38489,7.96164 15.02814,10.74733 27.36231,9.99865 11.01141,-0.66838 18.83828,-3.88877 24.3293,-10.09113 2.57225,-2.90547 5.6399,-4.9932 8.96032,-6.11648 l 4.96466,-1.67941 z m 164.50808,11.90928 c 0.0225,-0.006 0.0936,-0.0156 0.23541,0.0189 0.28346,0.069 0.78764,0.31149 1.4545,0.66839 0.86542,0.46316 1.1655,0.71682 1.30948,1.444 0.14398,0.72716 0.024,2.02791 -0.34471,4.26892 -0.46046,2.7987 -1.41337,6.70538 -2.07876,8.55887 -0.63172,1.75969 -1.07842,2.61894 -1.37464,2.82493 -0.1481,0.10299 -0.26855,0.13203 -0.57381,0.084 -0.30525,-0.0479 -0.75553,-0.20176 -1.34941,-0.44139 -0.71647,-0.28911 -0.9411,-0.59644 -0.93323,-1.35572 0.008,-0.75927 0.40862,-1.97795 1.26953,-3.64256 0.85285,-1.649 1.5687,-4.99709 1.72355,-7.71812 0.0814,-1.43063 0.152,-2.5101 0.24803,-3.28104 0.096,-0.77093 0.24634,-1.22807 0.34049,-1.36201 0.0471,-0.0669 0.051,-0.0609 0.0736,-0.0673 z m -76.66408,2.07035 c -0.88832,0.0171 -1.79054,0.22624 -2.62315,0.58852 -2.22027,0.96616 -4.083,3.0514 -4.05033,5.66038 0.01,0.74467 0.25273,1.79501 0.62215,3.00779 0.36944,1.21278 0.87161,2.55918 1.42508,3.76868 0.94115,2.0567 1.36826,3.11659 1.37674,4.01039 0.009,0.8938 -0.38898,1.79642 -1.29266,3.59422 -1.76066,3.50267 -4.34577,6.3317 -7.04342,8.0418 -2.69763,1.71011 -5.47194,2.28302 -7.66767,1.44821 -0.53127,-0.20199 -1.68478,-0.99687 -2.93212,-2.07457 -1.24732,-1.07769 -2.63527,-2.44286 -3.84855,-3.82122 -1.40953,-1.60131 -2.53506,-2.7211 -3.37142,-3.342 -0.41817,-0.31044 -0.73321,-0.52866 -1.17284,-0.55489 -0.21982,-0.0131 -0.51652,0.0847 -0.68102,0.29216 -0.16449,0.20749 -0.19548,0.43077 -0.19548,0.63687 0,0.86532 0.50007,1.79585 1.22961,2.89429 0.72955,1.09844 1.72505,2.31944 2.83754,3.51225 2.22499,2.38562 4.86475,4.64987 6.89839,5.49222 1.53592,0.63621 3.41918,2.37083 3.96414,3.56689 1.73985,3.81855 6.87915,6.15306 12.66175,6.0261 2.51438,-0.0552 6.33951,0.40423 8.30874,0.98368 1.06497,0.3134 2.18956,0.54691 3.16333,0.67471 0.97379,0.12781 1.74648,0.18296 2.3415,0.006 0.61996,-0.18422 2.73279,-0.40356 4.42027,-0.40356 0.9139,0 1.74378,-0.12261 2.39193,-0.34472 0.32408,-0.11105 0.60493,-0.24446 0.83866,-0.43298 0.23373,-0.18852 0.44769,-0.47445 0.44769,-0.83655 0,-0.30212 -0.18426,-0.51932 -0.3468,-0.64528 -0.16254,-0.12596 -0.339,-0.20773 -0.54439,-0.28375 -0.41077,-0.15205 -0.94265,-0.26811 -1.59533,-0.36783 -1.30534,-0.19944 -3.08457,-0.31738 -5.09497,-0.31738 -3.01082,0 -4.83203,-0.10105 -6.11857,-0.45191 -1.28658,-0.35089 -2.0812,-0.92516 -3.18646,-2.03042 -1.00887,-1.00887 -1.6036,-1.85959 -1.97367,-2.96786 -0.37007,-1.10827 -0.51076,-2.50741 -0.51076,-4.56319 0,-4.37327 0.39865,-7.18286 1.53437,-9.22726 1.13573,-2.0444 3.03744,-3.42303 6.27624,-4.9058 2.15519,-0.98668 3.68488,-1.8484 4.77336,-2.76397 1.08849,-0.91558 1.7288,-1.91298 2.01571,-3.05615 0.94819,-3.77789 -2.1212,-7.69919 -6.024,-7.69919 -1.11744,0 -2.74649,-0.72909 -3.31887,-1.41877 -0.81024,-0.97628 -1.89458,-1.49419 -3.05403,-1.64788 -0.28987,-0.0384 -0.58458,-0.054 -0.88069,-0.0483 z m -67.46204,1.16024 c -2.69887,4.88005 -6.29792,8.74866 -9.99236,10.63342 -6.10418,3.11412 -17.2747,2.64375 -24.27253,-1.10139 -0.61741,-0.33042 -1.07905,-0.58454 -1.36624,-0.77138 -0.0752,-0.049 -0.031,-0.005 -0.0756,-0.0463 0.20133,-0.0951 0.46726,-0.20474 0.8933,-0.35732 0.94006,-0.33669 3.10397,-0.24448 4.44339,0.27324 2.2659,0.87582 6.07488,1.18372 9.93139,1.07827 3.85651,-0.10547 7.70458,-0.62795 10.02598,-1.62055 2.32842,-0.99563 6.11929,-3.85284 8.67658,-6.47171 0.9046,-0.92634 1.19703,-1.12856 1.73615,-1.61635 z m 81.74433,9.4879 -1.46921,3.22429 c -0.31568,0.69283 -0.55599,1.25647 -0.6663,1.81392 -0.1103,0.55746 -0.0631,1.12142 0.18496,1.65208 0.49597,1.06133 1.62043,2.00221 3.68881,3.72033 1.18381,0.98334 2.19506,1.98897 2.85016,2.7871 0.32754,0.39907 0.56643,0.74916 0.68731,0.98999 0.0575,0.11438 0.0827,0.19782 0.0904,0.23541 -0.0871,0.15711 -0.15652,0.32 -0.15764,0.52337 -0.001,0.24305 0.15592,0.53627 0.36994,0.6663 0.42803,0.26004 0.81457,0.14996 1.26743,-0.006 -0.18598,0.0641 -0.0586,0.009 0.13452,0.082 0.19308,0.0737 0.4765,0.21041 0.81973,0.40356 0.68647,0.3863 1.61817,0.99353 2.71143,1.76348 2.18653,1.53993 5.02735,3.73955 7.97665,6.21948 2.96326,2.49167 5.74708,4.76372 7.85053,6.41914 1.05173,0.82771 1.93215,1.50011 2.58532,1.97368 0.32657,0.23679 0.59413,0.42388 0.80712,0.5591 0.10654,0.0676 0.20016,0.12298 0.28796,0.16815 0.0878,0.0452 0.13165,0.0945 0.34681,0.10929 0.44209,0.0305 0.8834,-0.16636 1.114,-0.49604 0.2306,-0.32966 0.27633,-0.71949 0.23541,-1.09718 -0.0818,-0.75538 -0.52407,-1.55792 -1.31578,-2.04724 -0.3349,-0.20697 -0.45015,-0.6927 -0.19757,-1.10138 0.12376,-0.20025 0.21345,-0.37072 0.26693,-0.56541 0.0268,-0.0973 0.0485,-0.20481 0.0295,-0.3468 -0.019,-0.14202 -0.10982,-0.33367 -0.26273,-0.4435 -0.30583,-0.21968 -0.55211,-0.12577 -0.73776,-0.0631 -0.18565,0.0627 -0.36711,0.15971 -0.57802,0.29006 0.16878,-0.10428 0.12662,-0.0265 -0.0399,-0.0756 -0.16657,-0.0492 -0.42889,-0.16167 -0.74617,-0.32579 -0.63454,-0.32824 -1.50019,-0.86553 -2.49493,-1.54279 -1.98948,-1.35451 -4.51052,-3.26952 -6.94883,-5.2484 -2.43831,-1.97886 -4.79717,-4.02452 -6.45908,-5.63304 -0.83096,-0.80427 -1.48966,-1.50237 -1.88329,-2.0052 -0.18796,-0.24011 -0.30244,-0.43047 -0.35312,-0.53809 0.0571,-0.0713 0.12544,-0.1344 0.16815,-0.22489 0.0395,-0.0837 0.0764,-0.18431 0.0778,-0.31948 10e-4,-0.1352 -0.0549,-0.31086 -0.16185,-0.4309 -0.21392,-0.24006 -0.44648,-0.23526 -0.61585,-0.22699 -0.16937,0.009 -0.32954,0.0463 -0.51076,0.10514 0.13137,-0.0426 -0.0949,-0.009 -0.40145,-0.13032 -0.30651,-0.1219 -0.72255,-0.33576 -1.19388,-0.61795 -0.94265,-0.56437 -2.11915,-1.40511 -3.27473,-2.37303 l -1.55119,-1.30106 1.02782,0.43089 c 2.37622,0.99454 5.64085,2.28897 7.28723,2.88798 0.76552,0.27852 1.37239,0.6511 1.69832,0.97108 0.16296,0.15998 0.2496,0.30467 0.27534,0.38043 0.0257,0.0758 0.0188,0.0563 0.009,0.0736 -0.11363,0.18385 -0.1964,0.34649 -0.24592,0.52968 -0.0495,0.18318 -0.0926,0.46743 0.14082,0.71884 0.23335,0.25142 0.54506,0.22799 0.73146,0.18077 0.18639,-0.0473 0.34547,-0.12918 0.52757,-0.24172 -0.15859,0.098 -0.0584,0.0218 0.11981,0.0379 0.17826,0.0159 0.4495,0.063 0.7819,0.14083 0.66479,0.15574 1.58389,0.43133 2.6757,0.80292 2.18361,0.74316 5.05936,1.8679 8.08384,3.19066 5.6543,2.47289 8.86718,3.83391 10.73642,4.41606 0.93461,0.29107 1.52271,0.4244 2.06405,0.29636 0.27066,-0.064 0.53725,-0.24521 0.6747,-0.48343 0.13745,-0.23823 0.16184,-0.48067 0.16184,-0.70834 0,-0.37795 -0.15955,-0.42442 -0.24801,-0.50865 -0.0885,-0.0843 -0.18346,-0.1562 -0.30057,-0.23752 -0.23423,-0.16264 -0.55065,-0.35486 -0.95426,-0.58222 -0.80722,-0.45473 -1.95624,-1.04676 -3.37353,-1.74456 -2.83456,-1.3956 -6.73548,-3.20517 -11.02647,-5.09287 -4.27659,-1.88135 -8.10064,-3.69497 -10.80579,-5.09706 -1.35256,-0.70105 -2.42758,-1.30176 -3.12549,-1.74457 -0.34896,-0.2214 -0.60587,-0.40628 -0.73566,-0.52126 -0.009,-0.008 -0.003,-0.003 -0.0108,-0.0108 0.0273,-0.10374 0.0972,-0.18139 0.0757,-0.31108 -0.0471,-0.28416 -0.31751,-0.52458 -0.53808,-0.59063 -0.44115,-0.13209 -0.81985,-0.0129 -1.31368,0.17656 -0.2941,0.11286 -0.84227,0.14628 -1.42088,0.0463 -0.27007,-0.0467 -0.50549,-0.19151 -0.77138,-0.28585 0.45981,-0.0597 0.76472,-0.12993 1.65418,-0.15764 2.79366,-0.087 7.72212,0.002 15.38999,0.25433 5.97916,0.19634 11.02955,0.26263 14.59547,0.20598 1.78296,-0.0283 3.19215,-0.0862 4.17644,-0.17656 0.49215,-0.0452 0.87517,-0.0964 1.17075,-0.16604 0.14779,-0.0349 0.27142,-0.069 0.40566,-0.13873 0.0672,-0.0349 0.13954,-0.0781 0.2186,-0.16394 0.0791,-0.0859 0.16605,-0.24156 0.16605,-0.41828 0,-0.26353 -0.13561,-0.49132 -0.28585,-0.64108 -0.15025,-0.14976 -0.32262,-0.25405 -0.52338,-0.35101 -0.40151,-0.19393 -0.92552,-0.34921 -1.59322,-0.49815 -1.33541,-0.29788 -3.24079,-0.55024 -5.65827,-0.75878 -4.83497,-0.41708 -11.70269,-0.65578 -19.90483,-0.65578 l -14.54294,0 z"
         style="fill:#000000;stroke:#000000;stroke-width:1.04972279" />
      <g
         style="font-style:normal;font-weight:normal;font-size:123.50558472px;line-height:125%;font-family:sans-serif;letter-spacing:-2.37748241px;word-spacing:0px;fill:#000000;fill-opacity:1;stroke:#000000;stroke-width:1.04972279;stroke-linecap:butt;stroke-linejoin:miter;stroke-opacity:1"
         id="text4160">
        <path
           d="m 147.65021,102.44492 q 4.19919,0 7.78085,-1.48206 3.70517,-1.48207 10.37447,-1.48207 5.31074,0 7.28683,0.86454 2.09959,0.74103 2.09959,3.08764 0,2.09959 -2.84063,3.08764 -2.71712,0.86454 -13.3386,2.84063 -8.27487,1.60557 -13.83262,2.71712 l -12.47407,2.59362 0,9.88044 q 0,10.00396 0.86454,15.19119 l 0.86454,5.43425 7.90436,-0.86454 q 7.03982,-0.98805 14.45015,-0.98805 9.50993,0 9.50993,1.85259 0,1.72907 -5.80476,3.95218 -5.80476,2.2231 -14.57366,3.82867 l -10.37447,1.85258 0.98804,19.63739 q 0.37052,7.41034 0.37052,11.85654 0,5.43424 -0.74103,7.41033 -0.61753,1.97609 -2.34661,1.97609 -1.11155,0 -2.47011,-0.49402 -1.85258,-0.49402 -2.34661,-2.34661 -0.49402,-1.85258 -0.49402,-7.78085 0,-5.68126 -2.2231,-21.98399 -2.09959,-16.42625 -2.09959,-33.34651 l 0,-20.87245 9.0159,-3.21114 q 9.13942,-3.21115 14.45016,-3.21115 z"
           style="font-style:normal;font-variant:normal;font-weight:normal;font-stretch:normal;font-family:Purisa;-inkscape-font-specification:Purisa;stroke:#000000;stroke-width:1.04972279"
           id="path5940" />
        <path
           d="m 194.86794,126.52851 q 1.72907,-1.48206 2.96413,-1.48206 2.59362,0 3.70517,8.27487 1.23505,8.15137 2.2231,31.49392 0.49402,10.8685 0.49402,19.63739 0,8.7689 -0.74103,9.63344 -1.48207,1.85258 -3.70517,1.85258 -3.08764,0 -3.82867,-2.59362 -0.61753,-1.60557 -1.85259,-24.94812 -1.23505,-23.46606 -1.23505,-32.60548 0,-7.65734 1.97609,-9.26292 z M 194.1269,97.504701 q 0,-1.729078 1.35856,-3.458156 1.48207,-1.729078 2.59362,-1.729078 1.23506,0 3.33465,1.729078 2.2231,1.605572 2.2231,4.19919 0,1.852585 -1.11155,3.211145 -0.98804,1.23506 -2.71712,1.23506 -1.97609,0 -3.82867,-1.48207 -1.85259,-1.482068 -1.85259,-3.705169 z"
           style="font-style:normal;font-variant:normal;font-weight:normal;font-stretch:normal;font-family:Purisa;-inkscape-font-specification:Purisa;stroke:#000000;stroke-width:1.04972279"
           id="path5942" />
        <path
           d="m 251.44507,102.44492 q 4.19919,0 7.78085,-1.48206 3.70517,-1.48207 10.37447,-1.48207 5.31074,0 7.28683,0.86454 2.09959,0.74103 2.09959,3.08764 0,2.09959 -2.84063,3.08764 -2.71712,0.86454 -13.3386,2.84063 -8.27487,1.60557 -13.83262,2.71712 l -12.47407,2.59362 0,9.88044 q 0,10.00396 0.86454,15.19119 l 0.86454,5.43425 7.90436,-0.86454 q 7.03982,-0.98805 14.45015,-0.98805 9.50993,0 9.50993,1.85259 0,1.72907 -5.80476,3.95218 -5.80476,2.2231 -14.57366,3.82867 l -10.37447,1.85258 0.98805,19.63739 q 0.37051,7.41034 0.37051,11.85654 0,5.43424 -0.74103,7.41033 -0.61753,1.97609 -2.34661,1.97609 -1.11155,0 -2.47011,-0.49402 -1.85258,-0.49402 -2.34661,-2.34661 -0.49402,-1.85258 -0.49402,-7.78085 0,-5.68126 -2.2231,-21.98399 -2.09959,-16.42625 -2.09959,-33.34651 l 0,-20.87245 9.0159,-3.21114 q 9.13942,-3.21115 14.45016,-3.21115 z"
           style="font-style:normal;font-variant:normal;font-weight:normal;font-stretch:normal;font-family:Purisa;-inkscape-font-specification:Purisa;stroke:#000000;stroke-width:1.04972279"
           id="path5944" />
        <path
           d="m 298.66279,126.52851 q 1.72908,-1.48206 2.96413,-1.48206 2.59362,0 3.70517,8.27487 1.23506,8.15137 2.2231,31.49392 0.49402,10.8685 0.49402,19.63739 0,8.7689 -0.74103,9.63344 -1.48207,1.85258 -3.70517,1.85258 -3.08764,0 -3.82867,-2.59362 -0.61753,-1.60557 -1.85258,-24.94812 -1.23506,-23.46606 -1.23506,-32.60548 0,-7.65734 1.97609,-9.26292 z m -0.74103,-29.023809 q 0,-1.729078 1.35856,-3.458156 1.48206,-1.729078 2.59361,-1.729078 1.23506,0 3.33466,1.729078 2.2231,1.605572 2.2231,4.19919 0,1.852585 -1.11155,3.211145 -0.98805,1.23506 -2.71713,1.23506 -1.97609,0 -3.82867,-1.48207 -1.85258,-1.482068 -1.85258,-3.705169 z"
           style="font-style:normal;font-variant:normal;font-weight:normal;font-stretch:normal;font-family:Purisa;-inkscape-font-specification:Purisa;stroke:#000000;stroke-width:1.04972279"
           id="path5946" />
        <path
           d="m 395.62625,198.16175 q 0,2.71713 -1.11155,4.19919 -0.98804,1.60558 -1.85258,1.85259 -0.74103,0.37051 -1.35856,0.37051 -1.60557,0 -2.71712,-1.11155 -1.11155,-0.98804 -1.72908,-3.70516 -0.61753,-2.59362 -0.86454,-3.95218 -0.12351,-1.35856 -0.49402,-5.06373 -0.86454,-12.47407 -1.97609,-12.47407 -1.35856,0 -4.3227,3.58167 -13.83262,16.30273 -29.14732,16.30273 -4.5697,0 -9.13941,-1.72908 -15.80871,-5.92826 -15.80871,-24.20709 0,-7.90436 2.59361,-15.06768 2.71713,-7.28683 6.79281,-12.22705 4.19919,-4.94023 8.39838,-8.27488 4.19919,-3.33465 8.02786,-4.69321 4.81672,-1.85258 6.6693,-1.85258 3.21115,0 10.74499,4.19919 7.65735,4.19919 10.62148,8.15136 3.33465,4.4462 5.06373,4.4462 0.12351,0 0.12351,0 0,-0.1235 0.1235,-0.1235 1.35856,-0.86454 1.35856,-32.23496 0,-30.9999 1.48207,-35.19909 1.60557,-3.828673 4.81672,-3.828673 l 3.33465,0 -0.98805,50.760793 q -0.37051,18.89636 -0.37051,33.71703 0,20.13141 0.86454,28.7768 0.86453,8.64539 0.86453,9.38642 z m -28.9003,-54.71297 q -7.28683,-4.81672 -10.12746,-4.81672 -2.47011,0 -11.1155,8.39838 -8.64539,8.39838 -10.25097,12.35056 -1.23505,2.96413 -1.23505,10.74498 0,9.50993 1.60557,12.35056 1.23506,2.2231 5.92827,4.81672 4.81672,2.59362 9.50993,2.59362 8.39838,0 21.24296,-12.35056 10.12746,-9.75694 10.12746,-12.72108 0,-4.07568 -5.18724,-10.86849 -5.06373,-6.7928 -10.49797,-10.49797 z"
           style="font-style:normal;font-variant:normal;font-weight:normal;font-stretch:normal;font-family:Purisa;-inkscape-font-specification:Purisa;stroke:#000000;stroke-width:1.04972279"
           id="path5948" />
        <path
           d="m 472.52008,170.373 q 0.61752,0 0.61752,0.98804 0,2.2231 -3.33465,7.16332 -3.21114,4.94023 -6.91631,8.15137 -12.96809,11.48602 -25.93617,11.48602 -4.94023,0 -9.88045,-2.2231 -4.81672,-2.3466 -9.01591,-6.54579 -4.19919,-4.19919 -6.7928,-11.23901 -2.59362,-7.03982 -2.59362,-15.68521 0,-5.31074 1.23505,-9.01591 2.47012,-7.53384 10.49798,-15.93222 8.15137,-8.39838 15.31469,-8.39838 1.97609,0 5.92827,0.37052 5.92827,0.49402 8.27487,1.23505 2.47012,0.74104 5.55776,3.08764 3.95217,2.96414 6.7928,7.65735 2.96414,4.56971 2.96414,7.65735 0,3.95217 -3.08764,6.05177 -3.08764,1.97609 -11.98004,3.95218 -11.48602,2.59362 -22.72503,3.21114 l -11.48602,0.61753 0,4.94022 q 0,9.13942 8.52188,17.29079 6.42229,6.17528 13.33861,6.17528 5.31074,0 11.23901,-3.21115 6.05177,-3.33465 10.25096,-7.28683 4.19919,-3.95218 8.02786,-7.16332 3.82867,-3.33465 5.18724,-3.33465 z m -19.8844,-30.13537 q -3.82868,-3.45815 -5.80477,-4.32269 -1.85258,-0.98805 -4.94022,-0.98805 -6.17528,0 -9.26292,1.23506 -2.96413,1.11155 -6.05177,4.69321 -9.38643,10.74499 -9.38643,14.32665 0,1.60557 2.96414,1.60557 11.23901,0 31.86444,-4.69321 6.17528,-1.48207 6.17528,-5.18724 0,-1.72907 -5.55775,-6.6693 z"
           style="font-style:normal;font-variant:normal;font-weight:normal;font-stretch:normal;font-family:Purisa;-inkscape-font-specification:Purisa;stroke:#000000;stroke-width:1.04972279"
           id="path5950" />
        <path
           d="m 527.34882,136.90298 q 2.09959,0 3.70517,1.35856 1.60557,1.23506 1.60557,2.0996 0,1.48207 -4.69321,3.33465 -7.65735,3.08764 -15.68521,14.94418 -7.90436,11.73303 -9.63344,22.72502 -1.97609,12.47407 -3.21114,16.30274 -1.23506,3.95218 -3.21115,3.95218 -1.72908,0 -2.71712,-1.23506 -0.86454,-1.23505 -1.23506,-2.71712 -0.24701,-1.48207 -0.61753,-5.43425 -0.1235,-0.74103 -0.1235,-1.11155 -2.96414,-31.1234 -2.96414,-49.15522 0,-6.42229 0.49403,-7.90436 1.35856,-3.95217 3.45815,-3.95217 1.97609,0 1.97609,3.33465 0,5.55775 1.72908,17.90831 1.72908,12.35055 2.59362,12.35055 1.11155,0 4.56971,-6.7928 4.32269,-8.02787 11.48601,-13.95613 7.28683,-6.05178 12.47407,-6.05178 z"
           style="font-style:normal;font-variant:normal;font-weight:normal;font-stretch:normal;font-family:Purisa;-inkscape-font-specification:Purisa;stroke:#000000;stroke-width:1.04972279"
           id="path5952" />
      </g>
    </g>
  </g>
</svg>
