<?xml version="1.0" encoding="UTF-8" standalone="no"?>
<!-- Created with Inkscape (http://www.inkscape.org/) -->

<svg
   xmlns:dc="http://purl.org/dc/elements/1.1/"
   xmlns:cc="http://creativecommons.org/ns#"
   xmlns:rdf="http://www.w3.org/1999/02/22-rdf-syntax-ns#"
   xmlns:svg="http://www.w3.org/2000/svg"
   xmlns="http://www.w3.org/2000/svg"
   xmlns:sodipodi="http://sodipodi.sourceforge.net/DTD/sodipodi-0.dtd"
   xmlns:inkscape="http://www.inkscape.org/namespaces/inkscape"
   width="15mm"
   height="7mm"
   viewBox="0 0 53.149607 24.803149"
   id="svg2"
   version="1.1"
   inkscape:version="0.91 r13725"
   sodipodi:docname="v.svg">
  <defs
     id="defs4" />
  <sodipodi:namedview
     id="base"
     pagecolor="#ffffff"
     bordercolor="#666666"
     borderopacity="1.0"
     inkscape:pageopacity="0.0"
     inkscape:pageshadow="2"
     inkscape:zoom="0.81968294"
     inkscape:cx="338.24478"
     inkscape:cy="-91.819136"
     inkscape:document-units="px"
     inkscape:current-layer="g5355"
     showgrid="false"
     inkscape:window-width="1600"
     inkscape:window-height="836"
     inkscape:window-x="0"
     inkscape:window-y="27"
     inkscape:window-maximized="1" />
  <metadata
     id="metadata7">
    <rdf:RDF>
      <cc:Work
         rdf:about="">
        <dc:format>image/svg+xml</dc:format>
        <dc:type
           rdf:resource="http://purl.org/dc/dcmitype/StillImage" />
        <dc:title></dc:title>
      </cc:Work>
    </rdf:RDF>
  </metadata>
  <g
     inkscape:label="Layer 1"
     inkscape:groupmode="layer"
     id="layer1"
     transform="translate(0,-1027.5591)">
    <g
       id="g5355">
      <g
         transform="scale(1.0019262,0.9980775)"
         style="font-style:normal;font-variant:normal;font-weight:normal;font-stretch:normal;font-size:135.10456848px;line-height:125%;font-family:serif;-inkscape-font-specification:serif;letter-spacing:-2.60076261px;word-spacing:0px;fill:#000000;fill-opacity:1;stroke:none;stroke-width:1px;stroke-linecap:butt;stroke-linejoin:miter;stroke-opacity:1"
         id="text4207" />
      <g
         id="g5382"
         transform="matrix(0.14711024,0,0,0.16022423,-3.470594,900.16957)">
        <g
           id="g5371"
           style="font-style:normal;font-variant:normal;font-weight:normal;font-stretch:normal;font-size:135.10456848px;line-height:125%;font-family:serif;-inkscape-font-specification:serif;letter-spacing:-2.60076261px;word-spacing:0px;fill:#000000;fill-opacity:1;stroke:none;stroke-width:1px;stroke-linecap:butt;stroke-linejoin:miter;stroke-opacity:1"
           transform="scale(1.0019262,0.9980775)">
          <path
             d="m 85.307967,831.89945 29.092343,75.6005 29.02637,-75.6005 -11.0828,0 0,-7.05869 28.89444,0 0,7.05869 -9.56551,0 -35.16149,91.43307 -11.34668,0 -34.96358,-91.43307 -9.829385,0 0,-7.05869 35.887151,0 0,7.05869 -10.950859,0 z"
             style="font-style:normal;font-variant:normal;font-weight:normal;font-stretch:normal;font-family:serif;-inkscape-font-specification:serif"
             id="path5363"
             inkscape:connector-curvature="0" />
          <path
             d="m 199.67029,918.71469 q 10.09326,0 15.10691,-11.0828 5.01365,-11.0828 5.01365,-33.4463 0,-22.42947 -5.01365,-33.51226 -5.01365,-11.0828 -15.10691,-11.0828 -10.09326,0 -15.1069,11.0828 -5.01365,11.08279 -5.01365,33.51226 0,22.3635 5.01365,33.4463 5.01364,11.0828 15.1069,11.0828 z m 0,6.53093 q -16.03047,0 -25.06823,-13.45768 -8.97178,-13.45768 -8.97178,-37.60235 0,-24.21063 8.97178,-37.66831 9.03776,-13.45768 25.06823,-13.45768 16.09645,0 25.06823,13.45768 8.97179,13.45768 8.97179,37.66831 0,24.14467 -8.97179,37.60235 -8.97178,13.45768 -25.06823,13.45768 z"
             style="font-style:normal;font-variant:normal;font-weight:normal;font-stretch:normal;font-family:serif;-inkscape-font-specification:serif"
             id="path5365"
             inkscape:connector-curvature="0" />
          <path
             d="m 252.87933,916.47174 q 0,-3.69426 2.50682,-6.26706 2.50683,-2.57279 6.26706,-2.57279 3.6283,0 6.20109,2.57279 2.57279,2.5728 2.57279,6.26706 0,3.6283 -2.57279,6.20109 -2.57279,2.57279 -6.20109,2.57279 -3.76023,0 -6.26706,-2.50682 -2.50682,-2.57279 -2.50682,-6.26706 z"
             style="font-style:normal;font-variant:normal;font-weight:normal;font-stretch:normal;font-family:serif;-inkscape-font-specification:serif"
             id="path5367"
             inkscape:connector-curvature="0" />
          <path
             d="m 299.75534,923.33252 0,-6.99272 17.15194,0 0,-81.93353 -19.85667,12.86396 0,-8.64194 24.01272,-15.56869 9.10373,0 0,93.2802 17.15195,0 0,6.99272 -47.56367,0 z"
             style="font-style:normal;font-variant:normal;font-weight:normal;font-stretch:normal;font-family:serif;-inkscape-font-specification:serif"
             id="path5369"
             inkscape:connector-curvature="0" />
        </g>
        <path
           inkscape:connector-curvature="0"
           id="rect4211"
           d="m 75.580078,795.07031 c -28.71484,0 -51.988281,23.27344 -51.988281,51.98828 l 0,50.82813 c 0,28.71484 23.273441,51.98633 51.988281,51.98633 l 257.314452,0 c 28.71484,0 51.98828,-23.27149 51.98828,-51.98633 l 0,-50.82813 c 0,-28.71484 -23.27344,-51.98828 -51.98828,-51.98828 l -257.314452,0 z m 0,10 257.314452,0 c 23.34781,0 41.98828,18.64047 41.98828,41.98828 l 0,50.82813 c 0,23.34781 -18.64047,41.98633 -41.98828,41.98633 l -257.314452,0 c -23.347812,0 -41.988281,-18.63852 -41.988281,-41.98633 l 0,-50.82813 c 0,-23.34781 18.640469,-41.98828 41.988281,-41.98828 z"
           style="color:#000000;font-style:normal;font-variant:normal;font-weight:normal;font-stretch:normal;font-size:medium;line-height:normal;font-family:sans-serif;text-indent:0;text-align:start;text-decoration:none;text-decoration-line:none;text-decoration-style:solid;text-decoration-color:#000000;letter-spacing:normal;word-spacing:normal;text-transform:none;direction:ltr;block-progression:tb;writing-mode:lr-tb;baseline-shift:baseline;text-anchor:start;white-space:normal;clip-rule:nonzero;display:inline;overflow:visible;visibility:visible;opacity:1;isolation:auto;mix-blend-mode:normal;color-interpolation:sRGB;color-interpolation-filters:linearRGB;solid-color:#000000;solid-opacity:1;fill:#000000;fill-opacity:1;fill-rule:nonzero;stroke:none;stroke-width:10;stroke-linecap:butt;stroke-linejoin:miter;stroke-miterlimit:4;stroke-dasharray:none;stroke-dashoffset:0;stroke-opacity:1;color-rendering:auto;image-rendering:auto;shape-rendering:auto;text-rendering:auto;enable-background:accumulate" />
      </g>
    </g>
  </g>
</svg>
